<svg width="195" height="40" viewBox="0 0 195 40" fill="none" xmlns="http://www.w3.org/2000/svg">
<path d="M7.61423 4.83784C9.17079 4.83784 10.3324 5.20782 11.0946 5.94778C11.8567 6.68774 12.2377 7.78129 12.2377 9.23077C12.2377 10.0035 12.0507 10.6826 11.6788 11.2657C11.3047 11.8487 10.7551 12.303 10.023 12.6238C9.29319 12.9446 8.39251 13.1039 7.32093 13.1039L7.41793 11.9939C7.92139 11.9939 8.49644 12.0642 9.14539 12.2047C9.79434 12.3452 10.4225 12.591 11.0322 12.9446C11.6396 13.2982 12.143 13.7923 12.5403 14.4245C12.9375 15.0591 13.1361 15.867 13.1361 16.8552C13.1361 17.9417 12.9606 18.8292 12.6119 19.52C12.2631 20.2107 11.8036 20.7446 11.2377 21.124C10.6696 21.5033 10.0622 21.7609 9.41328 21.9014C8.76433 22.0419 8.13847 22.1122 7.54033 22.1122H1.48266C1.06003 22.1122 0.706689 21.9693 0.424937 21.6813C0.140876 21.3933 0 21.035 0 20.6088V6.34352C0 5.915 0.140876 5.55907 0.424937 5.27105C0.708999 4.98302 1.06234 4.84018 1.48266 4.84018H7.61423V4.83784ZM7.17774 7.75085H2.84523L3.16163 7.35511V11.8206L2.87064 11.5982H7.24934C7.72046 11.5982 8.14078 11.4413 8.51491 11.1298C8.88904 10.8184 9.0738 10.3641 9.0738 9.77169C9.0738 9.06451 8.89828 8.54935 8.54955 8.22854C8.20314 7.91008 7.74356 7.75085 7.17774 7.75085ZM7.37174 14.5112H2.94223L3.16163 14.3145V19.52L2.91913 19.2741H7.54264C8.28859 19.2741 8.88211 19.0727 9.3186 18.6699C9.75739 18.2672 9.97448 17.663 9.97448 16.8552C9.97448 16.1152 9.82898 15.5813 9.53568 15.2511C9.24469 14.9233 8.89366 14.7172 8.48951 14.6353C8.08536 14.5533 7.71123 14.5112 7.37174 14.5112Z" fill="#424242"/>
<path d="M22.1914 8.71327L16.9351 21.2481C16.822 21.5595 16.6465 21.8031 16.4109 21.9763C16.1753 22.1496 15.919 22.2363 15.6442 22.2363C15.2054 22.2363 14.882 22.1122 14.6719 21.8663C14.4617 21.6204 14.3555 21.316 14.3555 20.9531C14.3555 20.8055 14.3809 20.6486 14.4294 20.4847L20.4894 5.73001C20.6187 5.40218 20.8173 5.14694 21.0852 4.96429C21.3531 4.78398 21.6418 4.70905 21.9489 4.74183C22.2399 4.74183 22.5124 4.82847 22.7642 5.00176C23.0159 5.17504 23.1983 5.41623 23.3115 5.73001L29.2976 20.1897C29.3784 20.4028 29.42 20.6018 29.42 20.7821C29.42 21.227 29.2768 21.5806 28.995 21.8429C28.711 22.1051 28.3992 22.2386 28.0574 22.2386C27.7664 22.2386 27.5008 22.1473 27.2676 21.967C27.032 21.7867 26.8496 21.5385 26.7202 21.227L21.487 8.86079L22.1914 8.71327ZM17.6903 18.2367L19.0275 15.3987H25.5978L26.0597 18.2367H17.6903Z" fill="#424242"/>
<path d="M44.4106 4.83784C44.8009 4.83784 45.1172 4.96897 45.3597 5.23358C45.6022 5.49584 45.7246 5.82602 45.7246 6.21941V20.6041C45.7246 21.0327 45.5814 21.3909 45.2997 21.6766C45.0156 21.9646 44.6623 22.1075 44.242 22.1075C44.0318 22.1075 43.817 22.07 43.5976 21.9974C43.3782 21.9225 43.212 21.8218 43.0988 21.6883L33.5354 9.37595L34.1682 8.98021V20.7259C34.1682 21.1216 34.0435 21.4495 33.7918 21.7117C33.54 21.974 33.2121 22.1075 32.8056 22.1075C32.4153 22.1075 32.0989 21.9763 31.8564 21.7117C31.6139 21.4495 31.4915 21.1193 31.4915 20.7259V6.34352C31.4915 5.915 31.6324 5.55907 31.9165 5.27105C32.2005 4.98302 32.5539 4.84018 32.9742 4.84018C33.2005 4.84018 33.4361 4.88467 33.6809 4.976C33.9234 5.06732 34.1035 5.20314 34.2167 5.38344L43.4891 17.375L43.0757 17.6701V6.21941C43.0757 5.82367 43.1981 5.49584 43.4406 5.23358C43.6808 4.97131 44.0041 4.83784 44.4106 4.83784Z" fill="#424242"/>
<path d="M68.1124 5.67849C68.535 5.89158 68.7821 6.22878 68.8537 6.69008C68.9276 7.15139 68.8098 7.57054 68.5003 7.94755C68.2902 8.24259 68.0177 8.40885 67.6851 8.44164C67.3526 8.47442 67.0154 8.40885 66.6759 8.24494C66.2856 8.06463 65.8768 7.92413 65.4473 7.82578C65.0177 7.72743 64.5674 7.67826 64.0962 7.67826C63.221 7.67826 62.4381 7.81876 61.7475 8.09741C61.057 8.37841 60.4704 8.77649 59.9831 9.29399C59.4958 9.8115 59.1263 10.425 58.8769 11.1322C58.6252 11.8394 58.5005 12.6215 58.5005 13.4762C58.5005 14.4807 58.6413 15.3518 58.9254 16.0918C59.2095 16.8318 59.6021 17.4499 60.1055 17.9417C60.609 18.4358 61.2002 18.8011 61.8815 19.0399C62.5628 19.2788 63.3018 19.3982 64.0962 19.3982C64.535 19.3982 64.9715 19.3584 65.4103 19.2741C65.8491 19.1921 66.2694 19.0446 66.6759 18.8292C67.0177 18.6653 67.3526 18.6067 67.6851 18.6559C68.0177 18.7051 68.2971 18.8784 68.5258 19.1734C68.8491 19.5855 68.9669 20.0094 68.8791 20.4449C68.789 20.8805 68.5419 21.1966 68.1378 21.3956C67.7151 21.6087 67.281 21.7867 66.8352 21.9272C66.3895 22.0677 65.9392 22.173 65.4842 22.248C65.0293 22.3229 64.5674 22.358 64.0962 22.358C62.9277 22.358 61.8214 22.1684 60.7753 21.7914C59.7291 21.412 58.7961 20.8547 57.9762 20.1124C57.1564 19.3724 56.512 18.4475 56.0409 17.3375C55.5698 16.2276 55.3342 14.9397 55.3342 13.4762C55.3342 12.2093 55.549 11.0409 55.9786 9.97307C56.4081 8.90294 57.0178 7.97799 57.803 7.19822C58.5905 6.41611 59.5189 5.80728 60.5905 5.37174C61.6621 4.93619 62.8284 4.71842 64.0939 4.71842C64.8076 4.71842 65.505 4.80037 66.1863 4.96429C66.8722 5.12586 67.5119 5.36471 68.1124 5.67849Z" fill="#424242"/>
<path d="M87.1191 13.4738C87.1191 14.7079 86.9158 15.86 86.5117 16.9278C86.1052 17.9979 85.5348 18.9392 84.7958 19.7541C84.0567 20.569 83.1815 21.2059 82.1676 21.6673C81.1538 22.1286 80.0452 22.358 78.8466 22.358C77.6457 22.358 76.5418 22.1286 75.5372 21.6673C74.5303 21.2059 73.6596 20.569 72.9206 19.7541C72.1816 18.9392 71.6112 17.9979 71.2047 16.9278C70.7982 15.8576 70.5973 14.7079 70.5973 13.4738C70.5973 12.2398 70.8005 11.0877 71.2047 10.0199C71.6088 8.94977 72.1816 8.00843 72.9206 7.19588C73.6596 6.38099 74.5303 5.74406 75.5372 5.28275C76.5418 4.82145 77.6457 4.59197 78.8466 4.59197C80.0476 4.59197 81.1538 4.82145 82.1676 5.28275C83.1815 5.74406 84.0567 6.38099 84.7958 7.19588C85.5348 8.01077 86.1052 8.95211 86.5117 10.0199C86.9158 11.09 87.1191 12.2421 87.1191 13.4738ZM83.9551 13.4738C83.9551 12.3709 83.7357 11.3734 83.2992 10.4765C82.8605 9.57967 82.26 8.86781 81.4979 8.34328C80.7358 7.81641 79.8513 7.55415 78.8443 7.55415C77.8374 7.55415 76.9552 7.81641 76.1908 8.34328C75.4287 8.87015 74.8328 9.57733 74.401 10.4648C73.9714 11.3523 73.7566 12.3569 73.7566 13.4762C73.7566 14.5791 73.9714 15.579 74.401 16.4735C74.8305 17.3703 75.4264 18.0822 76.1908 18.6067C76.9529 19.1336 77.8374 19.3959 78.8443 19.3959C79.8489 19.3959 80.7335 19.1336 81.4979 18.6067C82.26 18.0798 82.8605 17.368 83.2992 16.4735C83.7357 15.5766 83.9551 14.5767 83.9551 13.4738ZM79.3062 2.10046L77.2624 3.30875C76.9852 3.47266 76.752 3.60379 76.5557 3.70448C76.3594 3.80517 76.1815 3.85201 76.0199 3.85201C75.8097 3.85201 75.6296 3.78644 75.4841 3.65531C75.3386 3.52418 75.2647 3.38368 75.2647 3.23616C75.2647 3.10502 75.2901 2.99028 75.3386 2.88959C75.3871 2.79124 75.4841 2.66011 75.6296 2.49385L77.1631 0.716544C77.3732 0.487062 77.5926 0.309097 77.8213 0.18499C78.0476 0.0608828 78.3247 0 78.648 0H79.0383C79.3616 0 79.6388 0.0608828 79.8651 0.18499C80.0914 0.309097 80.3108 0.484721 80.521 0.716544L82.0545 2.49385C82.2 2.65777 82.297 2.7889 82.3455 2.88959C82.3939 2.98794 82.4193 3.10268 82.4193 3.23616C82.4193 3.38368 82.3501 3.52418 82.2115 3.65531C82.0729 3.78644 81.8905 3.85201 81.6642 3.85201C81.5025 3.85201 81.3247 3.80283 81.1284 3.70448C80.9344 3.60613 80.6988 3.475 80.4217 3.30875L78.3778 2.10046H79.3062Z" fill="#424242"/>
<path d="M102.839 4.83784C103.23 4.83784 103.546 4.96897 103.789 5.23358C104.031 5.49584 104.154 5.82602 104.154 6.21941V20.6041C104.154 21.0327 104.01 21.3909 103.729 21.6766C103.445 21.9646 103.091 22.1075 102.671 22.1075C102.461 22.1075 102.246 22.07 102.027 21.9974C101.807 21.9225 101.641 21.8218 101.528 21.6883L91.9643 9.37595L92.5971 8.98021V20.7259C92.5971 21.1216 92.4723 21.4495 92.2206 21.7117C91.9689 21.974 91.641 22.1075 91.2345 22.1075C90.8442 22.1075 90.5278 21.9763 90.2853 21.7117C90.0428 21.4495 89.9204 21.1193 89.9204 20.7259V6.34352C89.9204 5.915 90.0613 5.55907 90.3454 5.27105C90.6294 4.98302 90.9828 4.84018 91.4031 4.84018C91.6294 4.84018 91.865 4.88467 92.1098 4.976C92.3523 5.06732 92.5324 5.20314 92.6456 5.38344L101.918 17.375L101.505 17.6701V6.21941C101.505 5.82367 101.627 5.49584 101.869 5.23358C102.11 4.97131 102.433 4.83784 102.839 4.83784Z" fill="#424242"/>
<path d="M115.835 22.358C114.601 22.358 113.449 22.1286 112.38 21.6673C111.308 21.2059 110.368 20.569 109.558 19.7541C108.747 18.9392 108.11 17.9979 107.648 16.9278C107.186 15.8576 106.955 14.7079 106.955 13.4738C106.955 12.2398 107.186 11.0877 107.648 10.0199C108.11 8.94977 108.747 8.00843 109.558 7.19588C110.368 6.38099 111.31 5.74406 112.38 5.28275C113.451 4.82145 114.601 4.59197 115.835 4.59197C116.597 4.59197 117.336 4.67393 118.049 4.83784C118.763 5.00176 119.421 5.24997 120.022 5.5778C120.264 5.70893 120.447 5.8869 120.569 6.10935C120.691 6.33181 120.751 6.55895 120.751 6.78843C120.751 7.18417 120.622 7.53776 120.361 7.8492C120.103 8.16298 119.768 8.31753 119.363 8.31753C119.234 8.31753 119.1 8.30113 118.962 8.26835C118.823 8.23557 118.689 8.18639 118.56 8.12083C118.153 7.94052 117.724 7.80002 117.271 7.70167C116.816 7.60332 116.338 7.55415 115.835 7.55415C114.779 7.55415 113.819 7.8211 112.95 8.35499C112.082 8.88889 111.394 9.60543 110.881 10.5023C110.371 11.3991 110.114 12.3897 110.114 13.4762C110.114 14.5463 110.371 15.5321 110.881 16.4384C111.391 17.3422 112.082 18.0635 112.95 18.5974C113.819 19.1313 114.779 19.3982 115.835 19.3982C116.322 19.3982 116.858 19.349 117.442 19.2507C118.026 19.1523 118.504 19.0212 118.879 18.8549L118.659 19.5949V15.3752L119.072 15.7452H116.37C115.948 15.7452 115.594 15.6047 115.313 15.3261C115.029 15.0474 114.888 14.6938 114.888 14.2653C114.888 13.8368 115.029 13.4832 115.313 13.2045C115.597 12.9259 115.95 12.7854 116.37 12.7854H120.361C120.784 12.7854 121.133 12.9306 121.407 13.2163C121.682 13.5043 121.821 13.8625 121.821 14.2887V19.52C121.821 19.8501 121.745 20.1218 121.59 20.3349C121.435 20.5479 121.262 20.7212 121.066 20.8524C120.32 21.3137 119.504 21.679 118.62 21.9506C117.735 22.2222 116.807 22.358 115.835 22.358Z" fill="#424242"/>
<path d="M144.476 4.83784C144.867 4.83784 145.183 4.96897 145.426 5.23358C145.668 5.49584 145.79 5.82602 145.79 6.21941V20.6041C145.79 21.0327 145.647 21.3909 145.365 21.6766C145.081 21.9646 144.728 22.1075 144.308 22.1075C144.098 22.1075 143.883 22.07 143.663 21.9974C143.444 21.9225 143.278 21.8218 143.165 21.6883L133.599 9.37829L134.232 8.98255V20.7283C134.232 21.124 134.107 21.4518 133.855 21.7141C133.603 21.9763 133.276 22.1098 132.869 22.1098C132.479 22.1098 132.162 21.9787 131.92 21.7141C131.677 21.4518 131.555 21.1216 131.555 20.7283V6.34352C131.555 5.915 131.696 5.55907 131.98 5.27105C132.264 4.98302 132.617 4.84018 133.038 4.84018C133.264 4.84018 133.5 4.88467 133.744 4.976C133.987 5.06732 134.167 5.20314 134.28 5.38344L143.553 17.375L143.139 17.6701V6.21941C143.139 5.82367 143.262 5.49584 143.504 5.23358C143.747 4.97131 144.072 4.83784 144.476 4.83784Z" fill="#424242"/>
<path d="M157.472 22.358C156.238 22.358 155.086 22.1286 154.017 21.6673C152.945 21.2059 152.005 20.569 151.195 19.7541C150.384 18.9392 149.746 17.9979 149.285 16.9278C148.823 15.8576 148.592 14.7079 148.592 13.4738C148.592 12.2398 148.823 11.0877 149.285 10.0199C149.746 8.94977 150.384 8.00843 151.195 7.19588C152.005 6.38099 152.947 5.74406 154.017 5.28275C155.088 4.82145 156.238 4.59197 157.472 4.59197C158.234 4.59197 158.973 4.67393 159.686 4.83784C160.4 5.00176 161.058 5.24997 161.659 5.5778C161.901 5.70893 162.084 5.8869 162.206 6.10935C162.328 6.33181 162.388 6.55895 162.388 6.78843C162.388 7.18417 162.259 7.53776 161.998 7.8492C161.739 8.16298 161.405 8.31753 161 8.31753C160.871 8.31753 160.737 8.30113 160.599 8.26835C160.46 8.23557 160.326 8.18639 160.197 8.12083C159.79 7.94052 159.361 7.80002 158.908 7.70167C158.453 7.60332 157.975 7.55415 157.472 7.55415C156.416 7.55415 155.455 7.8211 154.587 8.35499C153.719 8.88889 153.031 9.60543 152.518 10.5023C152.007 11.3991 151.751 12.3897 151.751 13.4762C151.751 14.5463 152.007 15.5321 152.518 16.4384C153.028 17.3422 153.719 18.0635 154.587 18.5974C155.455 19.1313 156.416 19.3982 157.472 19.3982C157.959 19.3982 158.495 19.349 159.079 19.2507C159.663 19.1523 160.141 19.0212 160.515 18.8549L160.296 19.5949V15.3752L160.709 15.7452H158.007C157.585 15.7452 157.231 15.6047 156.95 15.3261C156.666 15.0474 156.525 14.6938 156.525 14.2653C156.525 13.8368 156.666 13.4832 156.95 13.2045C157.234 12.9259 157.587 12.7854 158.007 12.7854H161.998C162.421 12.7854 162.769 12.9306 163.044 13.2163C163.319 13.5043 163.458 13.8625 163.458 14.2887V19.52C163.458 19.8501 163.381 20.1218 163.227 20.3349C163.072 20.5479 162.899 20.7212 162.702 20.8524C161.957 21.3137 161.141 21.679 160.257 21.9506C159.375 22.2222 158.446 22.358 157.472 22.358Z" fill="#424242"/>
<path d="M167.936 4.83784C168.326 4.83784 168.67 4.98302 168.97 5.2687C169.271 5.55673 169.421 5.915 169.421 6.34118V20.6041C169.421 21.0327 169.266 21.3909 168.959 21.6766C168.649 21.9646 168.294 22.1075 167.887 22.1075C167.432 22.1075 167.067 21.9646 166.792 21.6766C166.515 21.3886 166.379 21.0303 166.379 20.6041V6.34352C166.379 5.915 166.525 5.55907 166.818 5.27105C167.109 4.98302 167.481 4.83784 167.936 4.83784ZM167.864 12.0197H178.718V14.8577H167.864V12.0197ZM178.716 4.83784C179.171 4.83784 179.536 4.98302 179.811 5.2687C180.086 5.55673 180.224 5.915 180.224 6.34118V20.6041C180.224 21.0327 180.081 21.3909 179.799 21.6766C179.515 21.9646 179.139 22.1075 178.668 22.1075C178.277 22.1075 177.933 21.9646 177.633 21.6766C177.333 21.3886 177.183 21.0303 177.183 20.6041V6.34352C177.183 5.915 177.337 5.55907 177.645 5.27105C177.954 4.98302 178.312 4.83784 178.716 4.83784Z" fill="#424242"/>
<path d="M185.36 4.83784H193.513C193.935 4.83784 194.286 4.97366 194.57 5.24529C194.855 5.51692 194.995 5.86582 194.995 6.29434C194.995 6.70647 194.852 7.03899 194.57 7.29423C194.286 7.54947 193.933 7.67592 193.513 7.67592H186.7L186.919 7.25676V12.0688L186.725 11.8721H192.42C192.843 11.8721 193.194 12.008 193.478 12.2796C193.762 12.5512 193.903 12.9001 193.903 13.3286C193.903 13.7408 193.76 14.0733 193.478 14.3285C193.194 14.5838 192.841 14.7102 192.42 14.7102H186.799L186.922 14.5135V19.4989L186.728 19.2764H193.517C193.94 19.2764 194.291 19.4216 194.575 19.7073C194.859 19.9953 195 20.3278 195 20.7072C195 21.1193 194.857 21.4565 194.575 21.7188C194.291 21.981 193.938 22.1145 193.517 22.1145H185.365C184.942 22.1145 184.589 21.9717 184.307 21.6836C184.023 21.3956 183.882 21.0373 183.882 20.6112V6.34352C183.882 5.915 184.023 5.55907 184.307 5.27105C184.584 4.98302 184.938 4.83784 185.36 4.83784ZM189.935 2.10046L187.892 3.30875C187.614 3.47266 187.381 3.60379 187.185 3.70448C186.991 3.80283 186.811 3.85201 186.649 3.85201C186.439 3.85201 186.259 3.78644 186.113 3.65531C185.968 3.52418 185.894 3.38368 185.894 3.23616C185.894 3.10502 185.919 2.99028 185.968 2.88959C186.016 2.79124 186.113 2.66011 186.259 2.49385L187.792 0.716544C188.002 0.487062 188.222 0.309097 188.45 0.18499C188.677 0.0608828 188.954 0 189.277 0H189.668C189.991 0 190.268 0.0608828 190.494 0.18499C190.721 0.309097 190.94 0.484721 191.15 0.716544L192.684 2.49385C192.829 2.65777 192.926 2.7889 192.975 2.88959C193.023 2.99028 193.049 3.10268 193.049 3.23616C193.049 3.38368 192.979 3.52418 192.841 3.65531C192.702 3.78644 192.52 3.85201 192.293 3.85201C192.132 3.85201 191.954 3.80283 191.758 3.70448C191.564 3.60613 191.328 3.475 191.051 3.30875L189.007 2.10046H189.935ZM188.963 25.7394C188.427 25.7394 188.046 25.648 187.82 25.4677C187.594 25.2874 187.48 24.9666 187.48 24.5053V24.037C187.48 23.5593 187.605 23.2362 187.857 23.0629C188.109 22.8896 188.478 22.803 188.963 22.803C189.564 22.803 189.977 22.8896 190.203 23.0629C190.43 23.2362 190.543 23.5593 190.543 24.037V24.5053C190.543 24.983 190.42 25.3062 190.178 25.4795C189.935 25.6527 189.529 25.7394 188.963 25.7394Z" fill="#424242"/>
<path d="M4.57038 40C3.88679 40 3.28634 39.897 2.76902 39.6909C2.25171 39.4848 1.75287 39.157 1.2725 38.7074C1.20784 38.6418 1.15472 38.5693 1.11315 38.4896C1.07158 38.41 1.0508 38.3234 1.0508 38.2297C1.0508 38.0799 1.10391 37.9464 1.21015 37.8293C1.31638 37.7122 1.44802 37.6537 1.60506 37.6537C1.73439 37.6537 1.84986 37.7052 1.95148 37.8082C2.31175 38.1641 2.70205 38.4358 3.12236 38.6231C3.54268 38.8104 4.01612 38.9041 4.54267 38.9041C4.94913 38.9041 5.31633 38.8385 5.64428 38.7074C5.97222 38.5763 6.23318 38.3936 6.42718 38.1595C6.62117 37.9253 6.71817 37.6537 6.71817 37.3446C6.70893 36.9699 6.60038 36.6608 6.39253 36.4173C6.18468 36.1737 5.89831 35.97 5.53342 35.8061C5.16853 35.6422 4.7459 35.504 4.26554 35.3916C3.8406 35.2886 3.45031 35.1622 3.09465 35.0123C2.739 34.8624 2.43184 34.6774 2.17318 34.4573C1.91453 34.2372 1.71361 33.9703 1.57042 33.6565C1.42723 33.3427 1.35564 32.9751 1.35564 32.5536C1.35564 32.0197 1.49421 31.5513 1.77134 31.1486C2.04847 30.7458 2.43184 30.4344 2.92144 30.2143C3.41105 29.9941 3.97455 29.8841 4.61196 29.8841C5.17546 29.8841 5.70894 29.9778 6.2124 30.1651C6.71586 30.3524 7.12001 30.61 7.42485 30.9378C7.60961 31.1158 7.70199 31.2891 7.70199 31.4577C7.70199 31.5982 7.64425 31.727 7.52878 31.844C7.41331 31.9611 7.28167 32.0197 7.13386 32.0197C7.03225 32.0197 6.93987 31.9822 6.85673 31.9073C6.69969 31.7293 6.50108 31.5701 6.2609 31.4296C6.02071 31.2891 5.75744 31.1767 5.47107 31.0924C5.1847 31.0081 4.89833 30.9659 4.61196 30.9659C4.18702 30.9659 3.81289 31.0291 3.48957 31.1556C3.16624 31.282 2.91452 31.46 2.73438 31.6895C2.55424 31.919 2.46417 32.1929 2.46417 32.5114C2.46417 32.8673 2.56579 33.16 2.76902 33.3895C2.97225 33.619 3.24477 33.8063 3.58656 33.9515C3.92836 34.0967 4.30711 34.2255 4.72281 34.3379C5.17546 34.4503 5.59347 34.5791 5.97684 34.7243C6.3602 34.8695 6.69045 35.0498 6.96759 35.2652C7.24472 35.4806 7.4595 35.7546 7.61192 36.0871C7.76434 36.4196 7.84055 36.8294 7.84055 37.3165C7.84055 37.8316 7.69737 38.2906 7.411 38.6934C7.12463 39.0961 6.73433 39.4122 6.24011 39.6417C5.74589 39.8712 5.18932 39.9906 4.57038 40Z" fill="#424242"/>
<path d="M12.6904 32.4131C13.1615 32.4131 13.5864 32.4646 13.9652 32.5676C14.3439 32.6707 14.6442 32.8111 14.8659 32.9891C15.0876 33.1671 15.1984 33.3685 15.1984 33.5933C15.1984 33.715 15.1569 33.8321 15.0737 33.9445C14.9906 34.0569 14.8797 34.1131 14.7412 34.1131C14.6118 34.1131 14.5079 34.0897 14.4294 34.0429C14.3509 33.996 14.277 33.9351 14.2077 33.8602C14.1384 33.7853 14.0437 33.7197 13.9236 33.6635C13.8128 33.5979 13.6511 33.5464 13.4386 33.509C13.2262 33.4715 13.0137 33.4528 12.8012 33.4528C12.2932 33.4528 11.8474 33.5745 11.4641 33.8181C11.0807 34.0616 10.7782 34.3894 10.5565 34.8015C10.3348 35.2137 10.2239 35.682 10.2239 36.2065C10.2239 36.7311 10.3301 37.1994 10.5426 37.6115C10.7551 38.0236 11.0507 38.3515 11.4294 38.595C11.8082 38.8385 12.247 38.9603 12.7458 38.9603C13.0691 38.9603 13.3278 38.9322 13.5218 38.876C13.7158 38.8198 13.8774 38.7542 14.0068 38.6793C14.173 38.5856 14.3001 38.492 14.3878 38.3983C14.4756 38.3046 14.5934 38.2578 14.7412 38.2578C14.8982 38.2578 15.0206 38.3093 15.1084 38.4124C15.1961 38.5154 15.24 38.6418 15.24 38.7917C15.24 38.9603 15.1245 39.1383 14.8936 39.3256C14.6626 39.5129 14.3509 39.6722 13.9583 39.8033C13.5657 39.9344 13.1199 40 12.6211 40C11.919 40 11.3047 39.8337 10.7782 39.5012C10.2516 39.1687 9.84284 38.7144 9.55185 38.1384C9.26086 37.5623 9.11537 36.9184 9.11537 36.2065C9.11537 35.4947 9.26548 34.8531 9.56571 34.2817C9.86593 33.7103 10.2839 33.2561 10.8197 32.9189C11.3555 32.5817 11.9791 32.4131 12.6904 32.4131Z" fill="#424242"/>
<path d="M20.1591 32.4833C20.7688 32.4833 21.2515 32.6168 21.6071 32.8837C21.9628 33.1507 22.2168 33.5066 22.3693 33.9515C22.5217 34.3964 22.5979 34.8905 22.5979 35.4338V39.2835C22.5979 39.4427 22.5448 39.5785 22.4385 39.6909C22.3323 39.8033 22.2007 39.8595 22.0436 39.8595C21.8866 39.8595 21.7549 39.8033 21.6487 39.6909C21.5425 39.5785 21.4894 39.4427 21.4894 39.2835V35.4338C21.4894 35.0779 21.4385 34.7571 21.3369 34.4714C21.2353 34.1857 21.0667 33.9562 20.8312 33.7829C20.5956 33.6096 20.2746 33.523 19.8681 33.523C19.4894 33.523 19.143 33.6096 18.8289 33.7829C18.5148 33.9562 18.2654 34.1857 18.0806 34.4714C17.8959 34.7571 17.8035 35.0779 17.8035 35.4338V39.2835C17.8035 39.4427 17.7504 39.5785 17.6441 39.6909C17.5379 39.8033 17.4063 39.8595 17.2492 39.8595C17.0922 39.8595 16.9605 39.8033 16.8543 39.6909C16.7481 39.5785 16.695 39.4427 16.695 39.2835V30.0246C16.695 29.8654 16.7481 29.7319 16.8543 29.6242C16.9605 29.5164 17.0922 29.4626 17.2492 29.4626C17.4155 29.4626 17.5494 29.5164 17.6511 29.6242C17.7527 29.7319 17.8035 29.8654 17.8035 30.0246V34.2255L17.5264 34.5346C17.5725 34.2911 17.6742 34.0452 17.8312 33.797C17.9882 33.5488 18.1869 33.3263 18.427 33.1296C18.6672 32.9329 18.9351 32.776 19.2307 32.6589C19.5263 32.5419 19.8358 32.4833 20.1591 32.4833Z" fill="#424242"/>
<path d="M31.4523 36.2065C31.4523 36.9371 31.2929 37.5881 30.9742 38.1595C30.6555 38.7308 30.226 39.1804 29.6856 39.5083C29.1452 39.8361 28.5378 40 27.8634 40C27.1891 40 26.5794 39.8361 26.0343 39.5083C25.4893 39.1804 25.0574 38.7308 24.7387 38.1595C24.42 37.5881 24.2607 36.9371 24.2607 36.2065C24.2607 35.4759 24.42 34.825 24.7387 34.2536C25.0574 33.6822 25.4893 33.2326 26.0343 32.9048C26.5794 32.577 27.1891 32.4131 27.8634 32.4131C28.5378 32.4131 29.1452 32.577 29.6856 32.9048C30.226 33.2326 30.6555 33.6822 30.9742 34.2536C31.2929 34.825 31.4523 35.4759 31.4523 36.2065ZM30.3438 36.2065C30.3438 35.6633 30.2352 35.1856 30.0181 34.7734C29.801 34.3613 29.5054 34.0382 29.1313 33.804C28.7572 33.5698 28.3345 33.4528 27.8634 33.4528C27.3923 33.4528 26.9697 33.5698 26.5955 33.804C26.2214 34.0382 25.9235 34.3613 25.7018 34.7734C25.4801 35.1856 25.3692 35.6633 25.3692 36.2065C25.3692 36.7404 25.4801 37.2134 25.7018 37.6256C25.9235 38.0377 26.2214 38.3632 26.5955 38.602C26.9697 38.8409 27.3923 38.9603 27.8634 38.9603C28.3345 38.9603 28.7572 38.8409 29.1313 38.602C29.5054 38.3632 29.801 38.0377 30.0181 37.6256C30.2352 37.2134 30.3438 36.7404 30.3438 36.2065Z" fill="#424242"/>
<path d="M39.9187 36.2065C39.9187 36.9371 39.7593 37.5881 39.4406 38.1595C39.1219 38.7308 38.6924 39.1804 38.152 39.5083C37.6116 39.8361 37.0042 40 36.3298 40C35.6555 40 35.0458 39.8361 34.5007 39.5083C33.9557 39.1804 33.5239 38.7308 33.2052 38.1595C32.8864 37.5881 32.7271 36.9371 32.7271 36.2065C32.7271 35.4759 32.8864 34.825 33.2052 34.2536C33.5239 33.6822 33.9557 33.2326 34.5007 32.9048C35.0458 32.577 35.6555 32.4131 36.3298 32.4131C37.0042 32.4131 37.6116 32.577 38.152 32.9048C38.6924 33.2326 39.1219 33.6822 39.4406 34.2536C39.7593 34.825 39.9187 35.4759 39.9187 36.2065ZM38.8102 36.2065C38.8102 35.6633 38.7016 35.1856 38.4845 34.7734C38.2674 34.3613 37.9718 34.0382 37.5977 33.804C37.2236 33.5698 36.801 33.4528 36.3298 33.4528C35.8587 33.4528 35.4361 33.5698 35.0619 33.804C34.6878 34.0382 34.3899 34.3613 34.1682 34.7734C33.9465 35.1856 33.8356 35.6633 33.8356 36.2065C33.8356 36.7404 33.9465 37.2134 34.1682 37.6256C34.3899 38.0377 34.6878 38.3632 35.0619 38.602C35.4361 38.8409 35.8587 38.9603 36.3298 38.9603C36.801 38.9603 37.2236 38.8409 37.5977 38.602C37.9718 38.3632 38.2674 38.0377 38.4845 37.6256C38.7016 37.2134 38.8102 36.7404 38.8102 36.2065Z" fill="#424242"/>
<path d="M42.8009 39.2835C42.8009 39.4427 42.7455 39.5785 42.6346 39.6909C42.5237 39.8033 42.3898 39.8595 42.2328 39.8595C42.0757 39.8595 41.9464 39.8033 41.8448 39.6909C41.7432 39.5785 41.6923 39.4427 41.6923 39.2835V30.0246C41.6923 29.8654 41.7455 29.7319 41.8517 29.6242C41.9579 29.5164 42.0896 29.4626 42.2466 29.4626C42.4129 29.4626 42.5468 29.5164 42.6485 29.6242C42.7501 29.7319 42.8009 29.8654 42.8009 30.0246V39.2835Z" fill="#424242"/>
<path d="M54.3019 38.7496C54.4589 38.7496 54.5929 38.8034 54.7037 38.9111C54.8146 39.0189 54.87 39.1523 54.87 39.3116C54.87 39.4708 54.8146 39.6019 54.7037 39.705C54.5929 39.808 54.4589 39.8595 54.3019 39.8595H49.5075C49.3505 39.8595 49.2188 39.8033 49.1126 39.6909C49.0064 39.5785 48.9532 39.4427 48.9532 39.2835V30.5866C48.9532 30.4273 49.0087 30.2939 49.1195 30.1862C49.2304 30.0784 49.3689 30.0246 49.5352 30.0246C49.6923 30.0246 49.8262 30.0784 49.9371 30.1862C50.0479 30.2939 50.1033 30.4273 50.1033 30.5866V39.0025L49.8262 38.7496H54.3019Z" fill="#424242"/>
<path d="M56.7822 31.542C56.5513 31.542 56.3804 31.4951 56.2695 31.4015C56.1587 31.3078 56.1033 31.1626 56.1033 30.9659V30.7692C56.1033 30.5725 56.1633 30.4274 56.2834 30.3337C56.4035 30.24 56.5744 30.1932 56.7961 30.1932C57.0178 30.1932 57.1841 30.24 57.2949 30.3337C57.4058 30.4274 57.4612 30.5725 57.4612 30.7692V30.9659C57.4612 31.1626 57.4035 31.3078 57.288 31.4015C57.1725 31.4951 57.0039 31.542 56.7822 31.542ZM57.3365 39.2835C57.3365 39.4427 57.2834 39.5785 57.1772 39.6909C57.0709 39.8033 56.9393 39.8595 56.7822 39.8595C56.616 39.8595 56.482 39.8033 56.3804 39.6909C56.2788 39.5785 56.228 39.4427 56.228 39.2835V33.0453C56.228 32.8861 56.2811 32.7526 56.3873 32.6449C56.4936 32.5372 56.6252 32.4833 56.7822 32.4833C56.9393 32.4833 57.0709 32.5372 57.1772 32.6449C57.2834 32.7526 57.3365 32.8861 57.3365 33.0453V39.2835Z" fill="#424242"/>
<path d="M62.7129 32.7081C62.8607 32.7081 62.9854 32.7573 63.087 32.8556C63.1886 32.954 63.2394 33.0781 63.2394 33.228C63.2394 33.3778 63.1886 33.5019 63.087 33.6003C62.9854 33.6986 62.8607 33.7478 62.7129 33.7478H59.2349C59.0871 33.7478 58.9624 33.6963 58.8607 33.5933C58.7591 33.4902 58.7083 33.3685 58.7083 33.228C58.7083 33.0687 58.7591 32.9423 58.8607 32.8486C58.9624 32.7549 59.0871 32.7081 59.2349 32.7081H62.7129ZM62.3249 29.4907C62.4819 29.4907 62.6459 29.5094 62.8168 29.5469C62.9877 29.5844 63.1355 29.6499 63.2602 29.7436C63.3849 29.8373 63.4473 29.9637 63.4473 30.1229C63.4473 30.2728 63.4011 30.3969 63.3087 30.4953C63.2163 30.5936 63.1055 30.6428 62.9762 30.6428C62.893 30.6428 62.7775 30.617 62.6297 30.5655C62.4819 30.514 62.3295 30.4882 62.1725 30.4882C61.96 30.4882 61.7868 30.5351 61.6529 30.6287C61.5189 30.7224 61.4219 30.8465 61.3619 31.0011C61.3018 31.1556 61.2718 31.3265 61.2718 31.5139V39.2835C61.2718 39.4427 61.2187 39.5785 61.1124 39.6909C61.0062 39.8033 60.8746 39.8595 60.7175 39.8595C60.5512 39.8595 60.4173 39.8033 60.3157 39.6909C60.2141 39.5785 60.1633 39.4427 60.1633 39.2835V31.5279C60.1633 30.9004 60.3549 30.4039 60.7383 30.0386C61.1217 29.6733 61.6505 29.4907 62.3249 29.4907Z" fill="#424242"/>
<path d="M67.5073 40C66.7683 40 66.1216 39.8408 65.5674 39.5223C65.0131 39.2038 64.5812 38.766 64.2718 38.2086C63.9623 37.6513 63.8076 37.0074 63.8076 36.2768C63.8076 35.4619 63.9669 34.7664 64.2856 34.1904C64.6043 33.6143 65.02 33.1741 65.5327 32.8697C66.0454 32.5653 66.5881 32.4131 67.1609 32.4131C67.5858 32.4131 67.9969 32.4927 68.3941 32.6519C68.7913 32.8111 69.1424 33.043 69.4472 33.3474C69.7521 33.6518 69.9969 34.0171 70.1816 34.4433C70.3664 34.8695 70.4634 35.3448 70.4726 35.8693C70.4726 36.0192 70.4172 36.1456 70.3063 36.2487C70.1955 36.3517 70.0661 36.4032 69.9183 36.4032H64.445L64.1955 35.4338H69.5303L69.3086 35.6305V35.3214C69.2717 34.9374 69.1447 34.6072 68.9276 34.3309C68.7105 34.0546 68.4472 33.8415 68.1378 33.6916C67.8283 33.5417 67.5027 33.4668 67.1609 33.4668C66.8837 33.4668 66.6089 33.516 66.3364 33.6143C66.0639 33.7127 65.8191 33.8719 65.602 34.092C65.3849 34.3121 65.2094 34.5955 65.0754 34.942C64.9415 35.2886 64.8745 35.7054 64.8745 36.1925C64.8745 36.7357 64.9831 37.2134 65.2001 37.6256C65.4172 38.0377 65.7198 38.3632 66.1078 38.602C66.4958 38.8409 66.9484 38.9603 67.4657 38.9603C67.789 38.9603 68.0708 38.9182 68.311 38.8339C68.5511 38.7496 68.759 38.6442 68.9345 38.5177C69.11 38.3913 69.2578 38.2625 69.3779 38.1314C69.498 38.0471 69.6135 38.0049 69.7243 38.0049C69.8629 38.0049 69.9761 38.0517 70.0638 38.1454C70.1516 38.2391 70.1955 38.3515 70.1955 38.4826C70.1955 38.6418 70.1216 38.7823 69.9738 38.9041C69.7151 39.1945 69.3641 39.4497 68.9207 39.6698C68.4772 39.8899 68.0061 40 67.5073 40Z" fill="#424242"/>
<path d="M78.9667 40C78.2831 40 77.6827 39.897 77.1654 39.6909C76.6481 39.4848 76.1492 39.157 75.6689 38.7074C75.6042 38.6418 75.5511 38.5693 75.5095 38.4896C75.4679 38.41 75.4471 38.3234 75.4471 38.2297C75.4471 38.0799 75.5003 37.9464 75.6065 37.8293C75.7127 37.7122 75.8444 37.6537 76.0014 37.6537C76.1307 37.6537 76.2462 37.7052 76.3478 37.8082C76.7081 38.1641 77.0984 38.4358 77.5187 38.6231C77.939 38.8104 78.4125 38.9041 78.939 38.9041C79.3455 38.9041 79.7127 38.8385 80.0406 38.7074C80.3686 38.5763 80.6295 38.3936 80.8235 38.1595C81.0175 37.9253 81.1145 37.6537 81.1145 37.3446C81.1053 36.9699 80.9967 36.6608 80.7889 36.4173C80.581 36.1737 80.2947 35.97 79.9298 35.8061C79.5649 35.6422 79.1423 35.504 78.6619 35.3916C78.237 35.2886 77.8467 35.1622 77.491 35.0123C77.1353 34.8624 76.8282 34.6774 76.5695 34.4573C76.3109 34.2372 76.11 33.9703 75.9668 33.6565C75.8236 33.3427 75.752 32.9751 75.752 32.5536C75.752 32.0197 75.8906 31.5513 76.1677 31.1486C76.4448 30.7458 76.8282 30.4344 77.3178 30.2143C77.8074 29.9941 78.3709 29.8841 79.0083 29.8841C79.5718 29.8841 80.1053 29.9778 80.6087 30.1651C81.1122 30.3524 81.5164 30.61 81.8212 30.9378C82.006 31.1158 82.0983 31.2891 82.0983 31.4577C82.0983 31.5982 82.0406 31.727 81.9251 31.844C81.8097 31.9611 81.678 32.0197 81.5302 32.0197C81.4286 32.0197 81.3362 31.9822 81.2531 31.9073C81.096 31.7293 80.8974 31.5701 80.6572 31.4296C80.4171 31.2891 80.1538 31.1767 79.8674 31.0924C79.581 31.0081 79.2947 30.9659 79.0083 30.9659C78.5834 30.9659 78.2092 31.0291 77.8859 31.1556C77.5626 31.282 77.3109 31.46 77.1307 31.6895C76.9506 31.919 76.8605 32.1929 76.8605 32.5114C76.8605 32.8673 76.9621 33.16 77.1654 33.3895C77.3686 33.619 77.6411 33.8063 77.9829 33.9515C78.3247 34.0967 78.7035 34.2255 79.1192 34.3379C79.5718 34.4503 79.9898 34.5791 80.3732 34.7243C80.7566 34.8695 81.0868 35.0498 81.3639 35.2652C81.6411 35.4806 81.8558 35.7546 82.0083 36.0871C82.1607 36.4196 82.2369 36.8294 82.2369 37.3165C82.2369 37.8316 82.0937 38.2906 81.8073 38.6934C81.521 39.0961 81.1307 39.4122 80.6365 39.6417C80.1422 39.8712 79.5834 39.9906 78.9667 40Z" fill="#424242"/>
<path d="M83.6203 32.6379H86.8766C87.0244 32.6379 87.1468 32.6894 87.2438 32.7924C87.3408 32.8954 87.3893 33.0172 87.3893 33.1577C87.3893 33.3076 87.3408 33.4317 87.2438 33.53C87.1468 33.6284 87.0244 33.6776 86.8766 33.6776H83.6203C83.4817 33.6776 83.3616 33.626 83.26 33.523C83.1584 33.42 83.1076 33.2935 83.1076 33.1437C83.1076 33.0032 83.1584 32.8837 83.26 32.7854C83.3616 32.687 83.4817 32.6379 83.6203 32.6379ZM85.0752 30.7271C85.2323 30.7271 85.3616 30.7809 85.4632 30.8887C85.5648 30.9964 85.6156 31.1298 85.6156 31.2891V38.0752C85.6156 38.3 85.6479 38.4686 85.7126 38.581C85.7773 38.6934 85.8627 38.7706 85.969 38.8128C86.0752 38.8549 86.1791 38.876 86.2807 38.876C86.3731 38.876 86.4539 38.8596 86.5232 38.8268C86.5925 38.794 86.6733 38.7777 86.7657 38.7777C86.8581 38.7777 86.9435 38.8222 87.0221 38.9111C87.1006 39.0001 87.1398 39.1149 87.1398 39.2554C87.1398 39.424 87.0429 39.5668 86.8489 39.6839C86.6549 39.801 86.4378 39.8595 86.1976 39.8595C86.0683 39.8595 85.9089 39.8501 85.7195 39.8314C85.5302 39.8127 85.3431 39.7518 85.1583 39.6488C84.9736 39.5457 84.8189 39.3748 84.6941 39.1359C84.5694 38.8971 84.5071 38.5622 84.5071 38.1314V31.2891C84.5071 31.1298 84.5625 30.9964 84.6734 30.8887C84.7842 30.7809 84.9182 30.7271 85.0752 30.7271Z" fill="#424242"/>
<path d="M95.6617 36.2065C95.6617 36.9371 95.5023 37.5881 95.1836 38.1595C94.8649 38.7308 94.4354 39.1804 93.895 39.5083C93.3545 39.8361 92.7472 40 92.0728 40C91.3985 40 90.7888 39.8361 90.2437 39.5083C89.6987 39.1804 89.2668 38.7308 88.9481 38.1595C88.6294 37.5881 88.4701 36.9371 88.4701 36.2065C88.4701 35.4759 88.6294 34.825 88.9481 34.2536C89.2668 33.6822 89.6987 33.2326 90.2437 32.9048C90.7888 32.577 91.3985 32.4131 92.0728 32.4131C92.7472 32.4131 93.3545 32.577 93.895 32.9048C94.4354 33.2326 94.8649 33.6822 95.1836 34.2536C95.5023 34.825 95.6617 35.4759 95.6617 36.2065ZM94.5532 36.2065C94.5532 35.6633 94.4446 35.1856 94.2275 34.7734C94.0104 34.3613 93.7148 34.0382 93.3407 33.804C92.9666 33.5698 92.5439 33.4528 92.0728 33.4528C91.6017 33.4528 91.1791 33.5698 90.8049 33.804C90.4308 34.0382 90.1329 34.3613 89.9112 34.7734C89.6895 35.1856 89.5786 35.6633 89.5786 36.2065C89.5786 36.7404 89.6895 37.2134 89.9112 37.6256C90.1329 38.0377 90.4308 38.3632 90.8049 38.602C91.1791 38.8409 91.6017 38.9603 92.0728 38.9603C92.5439 38.9603 92.9666 38.8409 93.3407 38.602C93.7148 38.3632 94.0104 38.0377 94.2275 37.6256C94.4446 37.2134 94.5532 36.7404 94.5532 36.2065Z" fill="#424242"/>
<path d="M97.8787 39.8595C97.7217 39.8595 97.5901 39.8033 97.4838 39.6909C97.3776 39.5785 97.3245 39.4427 97.3245 39.2835V33.1577C97.3245 32.9985 97.3776 32.865 97.4838 32.7573C97.5901 32.6496 97.7217 32.5957 97.8787 32.5957C98.045 32.5957 98.179 32.6496 98.2806 32.7573C98.3822 32.865 98.433 32.9985 98.433 33.1577V35.0123L98.2667 34.7172C98.3222 34.4269 98.4215 34.1435 98.5647 33.8672C98.7078 33.5909 98.8903 33.3427 99.112 33.1226C99.3337 32.9025 99.5877 32.7292 99.8741 32.6027C100.16 32.4763 100.475 32.4131 100.816 32.4131C101.02 32.4131 101.207 32.4622 101.378 32.5606C101.548 32.6589 101.634 32.7971 101.634 32.9751C101.634 33.1718 101.583 33.3169 101.481 33.4106C101.38 33.5043 101.264 33.5511 101.135 33.5511C101.015 33.5511 100.899 33.5254 100.789 33.4738C100.678 33.4223 100.539 33.3966 100.373 33.3966C100.142 33.3966 99.9134 33.4598 99.687 33.5862C99.4607 33.7127 99.2529 33.893 99.0635 34.1271C98.8741 34.3613 98.7217 34.6259 98.6062 34.921C98.4908 35.216 98.433 35.5321 98.433 35.8693V39.2835C98.433 39.4427 98.3799 39.5785 98.2737 39.6909C98.1674 39.8033 98.0358 39.8595 97.8787 39.8595Z" fill="#424242"/>
<path d="M103.394 31.542C103.163 31.542 102.992 31.4951 102.881 31.4015C102.77 31.3078 102.715 31.1626 102.715 30.9659V30.7692C102.715 30.5725 102.775 30.4274 102.895 30.3337C103.015 30.24 103.186 30.1932 103.408 30.1932C103.629 30.1932 103.796 30.24 103.906 30.3337C104.017 30.4274 104.073 30.5725 104.073 30.7692V30.9659C104.073 31.1626 104.015 31.3078 103.899 31.4015C103.784 31.4951 103.615 31.542 103.394 31.542ZM103.948 39.2835C103.948 39.4427 103.895 39.5785 103.789 39.6909C103.682 39.8033 103.551 39.8595 103.394 39.8595C103.227 39.8595 103.093 39.8033 102.992 39.6909C102.89 39.5785 102.839 39.4427 102.839 39.2835V33.0453C102.839 32.8861 102.893 32.7526 102.999 32.6449C103.105 32.5372 103.237 32.4833 103.394 32.4833C103.551 32.4833 103.682 32.5372 103.789 32.6449C103.895 32.7526 103.948 32.8861 103.948 33.0453V39.2835Z" fill="#424242"/>
<path d="M109.255 40C108.516 40 107.869 39.8408 107.315 39.5223C106.761 39.2038 106.329 38.766 106.02 38.2086C105.71 37.6513 105.555 37.0074 105.555 36.2768C105.555 35.4619 105.715 34.7664 106.033 34.1904C106.352 33.6143 106.768 33.1741 107.28 32.8697C107.793 32.5653 108.336 32.4131 108.909 32.4131C109.334 32.4131 109.745 32.4927 110.142 32.6519C110.539 32.8111 110.89 33.043 111.195 33.3474C111.5 33.6518 111.745 34.0171 111.929 34.4433C112.114 34.8695 112.211 35.3448 112.22 35.8693C112.22 36.0192 112.165 36.1456 112.054 36.2487C111.943 36.3517 111.814 36.4032 111.666 36.4032H106.193L105.943 35.4338H111.278L111.056 35.6305V35.3214C111.019 34.9374 110.892 34.6072 110.675 34.3309C110.458 34.0546 110.195 33.8415 109.886 33.6916C109.576 33.5417 109.25 33.4668 108.909 33.4668C108.632 33.4668 108.357 33.516 108.084 33.6143C107.812 33.7127 107.567 33.8719 107.35 34.092C107.133 34.3121 106.957 34.5955 106.823 34.942C106.689 35.2886 106.622 35.7054 106.622 36.1925C106.622 36.7357 106.731 37.2134 106.948 37.6256C107.165 38.0377 107.468 38.3632 107.856 38.602C108.244 38.8409 108.696 38.9603 109.213 38.9603C109.537 38.9603 109.819 38.9182 110.059 38.8339C110.299 38.7496 110.507 38.6442 110.682 38.5177C110.858 38.3913 111.006 38.2625 111.126 38.1314C111.246 38.0471 111.361 38.0049 111.472 38.0049C111.611 38.0049 111.724 38.0517 111.812 38.1454C111.899 38.2391 111.943 38.3515 111.943 38.4826C111.943 38.6418 111.869 38.7823 111.722 38.9041C111.463 39.1945 111.112 39.4497 110.668 39.6698C110.225 39.8899 109.754 40 109.255 40Z" fill="#424242"/>
<path d="M113.481 38.7074C113.398 38.5856 113.361 38.4569 113.37 38.321C113.38 38.1852 113.458 38.0658 113.606 37.9628C113.698 37.8972 113.807 37.8691 113.932 37.8785C114.056 37.8878 114.17 37.9487 114.271 38.0611C114.53 38.3702 114.825 38.6161 115.158 38.7987C115.491 38.9814 115.897 39.0727 116.377 39.0727C116.599 39.0633 116.821 39.0259 117.042 38.9603C117.264 38.8947 117.451 38.78 117.604 38.6161C117.756 38.4522 117.832 38.2344 117.832 37.9628C117.832 37.7005 117.754 37.4921 117.597 37.3376C117.44 37.183 117.236 37.0566 116.987 36.9582C116.738 36.8599 116.465 36.7732 116.17 36.6983C115.865 36.614 115.564 36.518 115.269 36.4103C114.973 36.3025 114.708 36.1667 114.472 36.0028C114.237 35.8389 114.047 35.6328 113.904 35.3846C113.761 35.1364 113.689 34.8343 113.689 34.4784C113.689 34.0569 113.802 33.6916 114.029 33.3825C114.255 33.0734 114.56 32.8346 114.943 32.666C115.327 32.4974 115.745 32.4131 116.197 32.4131C116.456 32.4131 116.726 32.4435 117.008 32.5044C117.29 32.5653 117.564 32.6683 117.832 32.8135C118.1 32.9587 118.336 33.1577 118.539 33.4106C118.622 33.5043 118.668 33.6214 118.678 33.7619C118.687 33.9024 118.627 34.0288 118.497 34.1412C118.396 34.2161 118.283 34.2489 118.158 34.2395C118.033 34.2302 117.929 34.1833 117.846 34.099C117.652 33.8649 117.41 33.6846 117.119 33.5581C116.828 33.4317 116.507 33.3685 116.156 33.3685C115.934 33.3685 115.717 33.4012 115.504 33.4668C115.292 33.5324 115.114 33.6424 114.971 33.797C114.828 33.9515 114.756 34.1646 114.756 34.4362C114.765 34.6891 114.849 34.8952 115.006 35.0544C115.163 35.2137 115.375 35.3425 115.643 35.4408C115.911 35.5392 116.206 35.6352 116.53 35.7288C116.825 35.8038 117.109 35.8904 117.382 35.9888C117.654 36.0871 117.902 36.2159 118.123 36.3751C118.345 36.5344 118.521 36.7381 118.65 36.9863C118.779 37.2345 118.844 37.546 118.844 37.9206C118.844 38.3515 118.724 38.7238 118.484 39.0376C118.243 39.3514 117.927 39.5902 117.534 39.7541C117.142 39.918 116.719 40 116.267 40C115.758 40 115.257 39.9017 114.763 39.705C114.269 39.5083 113.842 39.1757 113.481 38.7074Z" fill="#424242"/>
</svg>
